<svg width="26" height="26" viewBox="0 0 26 26" fill="none" xmlns="http://www.w3.org/2000/svg">
<path fill-rule="evenodd" clip-rule="evenodd" d="M3.31103 11.4998C4.47103 11.0864 5.69172 10.5371 6.63306 9.74175C7.75105 8.79709 8.20573 7.58044 8.51107 6.29978C8.90307 4.65444 9.0597 2.90176 9.53503 1.25376C9.71103 0.641757 10.0497 0.41042 10.1951 0.307753C10.5624 0.0484199 10.9337 -0.0208997 11.283 0.00510028C11.697 0.0351003 12.2657 0.191756 12.6397 0.885756C12.6931 0.98509 12.7624 1.13643 12.809 1.34376C12.843 1.49576 12.865 1.97109 12.901 2.16709C12.991 2.64975 13.0664 3.13244 13.137 3.61777C13.3724 5.2331 13.5077 6.60508 14.2511 8.08908C15.2597 10.1038 16.2704 11.3364 17.6411 11.8824C18.9664 12.4104 20.5511 12.3111 22.5757 11.8971C22.7684 11.8504 22.959 11.8104 23.1477 11.7778C24.0404 11.6218 24.8937 12.2078 25.069 13.0971C25.2444 13.9858 24.6771 14.8518 23.7924 15.0471C23.6077 15.0878 23.4257 15.1264 23.2457 15.1618C20.5097 15.8391 17.3424 18.2564 15.5017 20.3731C14.9344 21.0258 14.1037 22.8504 13.2564 24.0144C12.6311 24.8731 11.9284 25.4391 11.3384 25.6391C10.943 25.7738 10.6097 25.7531 10.3344 25.6851C9.93439 25.5864 9.6024 25.3697 9.34774 25.0251C9.20907 24.8364 9.08037 24.5837 9.01904 24.2611C8.98971 24.1058 8.98639 23.7111 8.98706 23.5324C8.81439 22.9384 8.60305 22.3584 8.44905 21.7591C8.08172 20.3291 7.36104 19.4238 6.50504 18.2278C5.70438 17.1084 4.84441 16.4051 3.58374 15.8438C3.41974 15.8038 2.0964 15.4798 1.62907 15.2938C0.946401 15.0211 0.62105 14.5644 0.50305 14.3184C0.302384 13.9011 0.281735 13.5364 0.321735 13.2324C0.381069 12.7838 0.582403 12.3998 0.939737 12.0898C1.16107 11.8971 1.49174 11.7098 1.93441 11.6184C2.27641 11.5471 3.1837 11.5058 3.31103 11.4998ZM11.0744 9.16908C11.1357 9.30575 11.2011 9.44309 11.2704 9.58176C12.7477 12.5324 14.3997 14.1798 16.4077 14.9791L16.4751 15.0051C15.1317 16.0024 13.9157 17.1171 12.9864 18.1858C12.6037 18.6258 12.0971 19.5398 11.5497 20.4771C11.0524 18.8604 10.2391 17.7178 9.21639 16.2878C8.43505 15.1964 7.61639 14.3751 6.61039 13.7058C7.39106 13.3051 8.13571 12.8358 8.78438 12.2878C9.86438 11.3751 10.5784 10.3177 11.0744 9.16908Z" fill="#3A9A74"/>
</svg>
